<svg xmlns="http://www.w3.org/2000/svg" xmlns:xlink="http://www.w3.org/1999/xlink" width="60" zoomAndPan="magnify" viewBox="0 0 45 30.000001" height="40" preserveAspectRatio="xMidYMid meet" version="1.0"><defs><g/><clipPath id="73f24af19d"><path d="M 0.726562 2 L 44.273438 2 L 44.273438 23 L 0.726562 23 Z M 0.726562 2 " clip-rule="nonzero"/></clipPath><clipPath id="91f302fe0c"><path d="M 0.726562 0.785156 L 44.273438 0.785156 L 44.273438 20.761719 L 0.726562 20.761719 Z M 0.726562 0.785156 " clip-rule="nonzero"/></clipPath><clipPath id="9dabf750ca"><path d="M 25.828125 14.910156 L 30.265625 14.910156 L 30.265625 19.347656 L 25.828125 19.347656 Z M 25.828125 14.910156 " clip-rule="nonzero"/></clipPath><clipPath id="74298d71ed"><path d="M 28.007812 14.910156 L 28.089844 14.910156 C 29.292969 14.910156 30.265625 15.886719 30.265625 17.089844 L 30.265625 17.171875 C 30.265625 18.375 29.292969 19.347656 28.089844 19.347656 L 28.007812 19.347656 C 26.804688 19.347656 25.828125 18.375 25.828125 17.171875 L 25.828125 17.089844 C 25.828125 15.886719 26.804688 14.910156 28.007812 14.910156 Z M 28.007812 14.910156 " clip-rule="nonzero"/></clipPath><clipPath id="07801eed13"><path d="M 0.828125 0.910156 L 5.265625 0.910156 L 5.265625 5.347656 L 0.828125 5.347656 Z M 0.828125 0.910156 " clip-rule="nonzero"/></clipPath><clipPath id="a406af331c"><path d="M 3.007812 0.910156 L 3.089844 0.910156 C 4.292969 0.910156 5.265625 1.886719 5.265625 3.089844 L 5.265625 3.171875 C 5.265625 4.375 4.292969 5.347656 3.089844 5.347656 L 3.007812 5.347656 C 1.804688 5.347656 0.828125 4.375 0.828125 3.171875 L 0.828125 3.089844 C 0.828125 1.886719 1.804688 0.910156 3.007812 0.910156 Z M 3.007812 0.910156 " clip-rule="nonzero"/></clipPath><clipPath id="d53b560de6"><rect x="0" width="6" y="0" height="6"/></clipPath><clipPath id="cc6f2afd89"><rect x="0" width="45" y="0" height="21"/></clipPath><clipPath id="a4d772bcde"><path d="M 0.726562 21 L 44.273438 21 L 44.273438 29.03125 L 0.726562 29.03125 Z M 0.726562 21 " clip-rule="nonzero"/></clipPath><clipPath id="003f1bfefa"><rect x="0" width="45" y="0" height="9"/></clipPath></defs><g clip-path="url(#73f24af19d)"><g transform="matrix(1, 0, 0, 1, 0.000000000000000111, 2)"><g clip-path="url(#cc6f2afd89)"><g clip-path="url(#91f302fe0c)"><path stroke-linecap="round" transform="matrix(0.155938, -0.155938, 0.155938, 0.155938, 11.830603, 17.014623)" fill="none" stroke-linejoin="miter" d="M 10.99835 11.004777 L 92.323422 10.992252 " stroke="#81afc3" stroke-width="22" stroke-opacity="1" stroke-miterlimit="4"/><path stroke-linecap="round" transform="matrix(-0.155938, -0.155938, 0.155938, -0.155938, 40.840944, 20.557425)" fill="none" stroke-linejoin="miter" d="M 11.00929 11.002231 L 92.321837 11.002231 " stroke="#81afc3" stroke-width="22" stroke-opacity="1" stroke-miterlimit="4"/><path stroke-linecap="round" transform="matrix(0.155938, -0.155938, 0.155938, 0.155938, 0.725356, 17.014623)" fill="none" stroke-linejoin="miter" d="M 10.997638 11.004065 L 92.32271 10.99154 " stroke="#81afc3" stroke-width="22" stroke-opacity="1" stroke-miterlimit="4"/></g><g clip-path="url(#9dabf750ca)"><g clip-path="url(#74298d71ed)"><g transform="matrix(1, 0, 0, 1, 25, 14)"><g clip-path="url(#d53b560de6)"><g clip-path="url(#07801eed13)"><g clip-path="url(#a406af331c)"><path fill="#81afc3" d="M 0.828125 0.910156 L 5.265625 0.910156 L 5.265625 5.347656 L 0.828125 5.347656 Z M 0.828125 0.910156 " fill-opacity="1" fill-rule="nonzero"/></g></g></g></g></g></g></g></g></g><g clip-path="url(#a4d772bcde)"><g transform="matrix(1, 0, 0, 1, 0.000000000000000111, 21)"><g clip-path="url(#003f1bfefa)"><g fill="#ffffff" fill-opacity="1"><g transform="translate(1.110536, 6.667953)"><g><path d="M 3.390625 0 L 2.515625 -1.265625 C 2.484375 -1.253906 2.429688 -1.25 2.359375 -1.25 L 1.375 -1.25 L 1.375 0 L 0.578125 0 L 0.578125 -4.3125 L 2.359375 -4.3125 C 2.722656 -4.3125 3.046875 -4.25 3.328125 -4.125 C 3.609375 -4 3.820312 -3.820312 3.96875 -3.59375 C 4.113281 -3.363281 4.1875 -3.09375 4.1875 -2.78125 C 4.1875 -2.457031 4.109375 -2.175781 3.953125 -1.9375 C 3.796875 -1.707031 3.566406 -1.535156 3.265625 -1.421875 L 4.265625 0 Z M 3.375 -2.78125 C 3.375 -3.050781 3.285156 -3.257812 3.109375 -3.40625 C 2.929688 -3.550781 2.664062 -3.625 2.3125 -3.625 L 1.375 -3.625 L 1.375 -1.921875 L 2.3125 -1.921875 C 2.664062 -1.921875 2.929688 -1.992188 3.109375 -2.140625 C 3.285156 -2.285156 3.375 -2.5 3.375 -2.78125 Z M 3.375 -2.78125 "/></g></g></g><g fill="#ffffff" fill-opacity="1"><g transform="translate(5.610368, 6.667953)"><g><path d="M 3.8125 -0.671875 L 3.8125 0 L 0.578125 0 L 0.578125 -4.3125 L 3.71875 -4.3125 L 3.71875 -3.640625 L 1.375 -3.640625 L 1.375 -2.515625 L 3.453125 -2.515625 L 3.453125 -1.859375 L 1.375 -1.859375 L 1.375 -0.671875 Z M 3.8125 -0.671875 "/></g></g></g><g fill="#ffffff" fill-opacity="1"><g transform="translate(9.7347, 6.667953)"><g><path d="M 3.375 -1 L 1.21875 -1 L 0.796875 0 L -0.03125 0 L 1.90625 -4.3125 L 2.703125 -4.3125 L 4.640625 0 L 3.796875 0 Z M 3.109375 -1.625 L 2.296875 -3.515625 L 1.484375 -1.625 Z M 3.109375 -1.625 "/></g></g></g><g fill="#ffffff" fill-opacity="1"><g transform="translate(14.345336, 6.667953)"><g><path d="M 0.578125 -4.3125 L 1.375 -4.3125 L 1.375 -0.671875 L 3.625 -0.671875 L 3.625 0 L 0.578125 0 Z M 0.578125 -4.3125 "/></g></g></g><g fill="#ffffff" fill-opacity="1"><g transform="translate(18.032612, 6.667953)"><g/></g></g><g fill="#ffffff" fill-opacity="1"><g transform="translate(19.731593, 6.667953)"><g><path d="M 3.8125 -0.671875 L 3.8125 0 L 0.578125 0 L 0.578125 -4.3125 L 3.71875 -4.3125 L 3.71875 -3.640625 L 1.375 -3.640625 L 1.375 -2.515625 L 3.453125 -2.515625 L 3.453125 -1.859375 L 1.375 -1.859375 L 1.375 -0.671875 Z M 3.8125 -0.671875 "/></g></g></g><g fill="#ffffff" fill-opacity="1"><g transform="translate(23.855924, 6.667953)"><g><path d="M 1.921875 0.0625 C 1.585938 0.0625 1.265625 0.015625 0.953125 -0.078125 C 0.640625 -0.171875 0.394531 -0.296875 0.21875 -0.453125 L 0.5 -1.078125 C 0.664062 -0.941406 0.878906 -0.828125 1.140625 -0.734375 C 1.398438 -0.648438 1.660156 -0.609375 1.921875 -0.609375 C 2.234375 -0.609375 2.46875 -0.65625 2.625 -0.75 C 2.789062 -0.851562 2.875 -0.988281 2.875 -1.15625 C 2.875 -1.28125 2.828125 -1.382812 2.734375 -1.46875 C 2.648438 -1.550781 2.539062 -1.613281 2.40625 -1.65625 C 2.269531 -1.695312 2.082031 -1.75 1.84375 -1.8125 C 1.519531 -1.882812 1.253906 -1.957031 1.046875 -2.03125 C 0.847656 -2.113281 0.675781 -2.238281 0.53125 -2.40625 C 0.382812 -2.570312 0.3125 -2.796875 0.3125 -3.078125 C 0.3125 -3.316406 0.375 -3.535156 0.5 -3.734375 C 0.632812 -3.929688 0.832031 -4.085938 1.09375 -4.203125 C 1.351562 -4.316406 1.671875 -4.375 2.046875 -4.375 C 2.304688 -4.375 2.5625 -4.335938 2.8125 -4.265625 C 3.070312 -4.203125 3.296875 -4.109375 3.484375 -3.984375 L 3.21875 -3.375 C 3.03125 -3.476562 2.832031 -3.554688 2.625 -3.609375 C 2.425781 -3.671875 2.226562 -3.703125 2.03125 -3.703125 C 1.71875 -3.703125 1.484375 -3.648438 1.328125 -3.546875 C 1.179688 -3.441406 1.109375 -3.300781 1.109375 -3.125 C 1.109375 -3 1.148438 -2.894531 1.234375 -2.8125 C 1.316406 -2.738281 1.425781 -2.675781 1.5625 -2.625 C 1.695312 -2.582031 1.882812 -2.535156 2.125 -2.484375 C 2.445312 -2.410156 2.707031 -2.332031 2.90625 -2.25 C 3.113281 -2.164062 3.289062 -2.039062 3.4375 -1.875 C 3.582031 -1.71875 3.65625 -1.5 3.65625 -1.21875 C 3.65625 -0.976562 3.585938 -0.757812 3.453125 -0.5625 C 3.328125 -0.375 3.132812 -0.222656 2.875 -0.109375 C 2.613281 0.00390625 2.296875 0.0625 1.921875 0.0625 Z M 1.921875 0.0625 "/></g></g></g><g fill="#ffffff" fill-opacity="1"><g transform="translate(27.727871, 6.667953)"><g><path d="M 1.453125 -3.625 L 0.03125 -3.625 L 0.03125 -4.3125 L 3.6875 -4.3125 L 3.6875 -3.625 L 2.25 -3.625 L 2.25 0 L 1.453125 0 Z M 1.453125 -3.625 "/></g></g></g><g fill="#ffffff" fill-opacity="1"><g transform="translate(31.433611, 6.667953)"><g><path d="M 3.375 -1 L 1.21875 -1 L 0.796875 0 L -0.03125 0 L 1.90625 -4.3125 L 2.703125 -4.3125 L 4.640625 0 L 3.796875 0 Z M 3.109375 -1.625 L 2.296875 -3.515625 L 1.484375 -1.625 Z M 3.109375 -1.625 "/></g></g></g><g fill="#ffffff" fill-opacity="1"><g transform="translate(36.044248, 6.667953)"><g><path d="M 1.453125 -3.625 L 0.03125 -3.625 L 0.03125 -4.3125 L 3.6875 -4.3125 L 3.6875 -3.625 L 2.25 -3.625 L 2.25 0 L 1.453125 0 Z M 1.453125 -3.625 "/></g></g></g><g fill="#ffffff" fill-opacity="1"><g transform="translate(39.749988, 6.667953)"><g><path d="M 3.8125 -0.671875 L 3.8125 0 L 0.578125 0 L 0.578125 -4.3125 L 3.71875 -4.3125 L 3.71875 -3.640625 L 1.375 -3.640625 L 1.375 -2.515625 L 3.453125 -2.515625 L 3.453125 -1.859375 L 1.375 -1.859375 L 1.375 -0.671875 Z M 3.8125 -0.671875 "/></g></g></g></g></g></g></svg>