<svg xmlns="http://www.w3.org/2000/svg" xmlns:xlink="http://www.w3.org/1999/xlink" width="40" zoomAndPan="magnify" viewBox="0 0 30 30.000001" height="40" preserveAspectRatio="xMidYMid meet" version="1.0"><defs><g/><clipPath id="108ce7355f"><path d="M 0.484375 0 L 29.515625 0 L 29.515625 29.03125 L 0.484375 29.03125 Z M 0.484375 0 " clip-rule="nonzero"/></clipPath><clipPath id="617b5649e1"><path d="M 15 0 C 6.984375 0 0.484375 6.5 0.484375 14.515625 C 0.484375 22.53125 6.984375 29.03125 15 29.03125 C 23.015625 29.03125 29.515625 22.53125 29.515625 14.515625 C 29.515625 6.5 23.015625 0 15 0 Z M 15 0 " clip-rule="nonzero"/></clipPath><clipPath id="bd2453b2bb"><path d="M 0.484375 0 L 29.515625 0 L 29.515625 29.03125 L 0.484375 29.03125 Z M 0.484375 0 " clip-rule="nonzero"/></clipPath><clipPath id="57aef84f9b"><path d="M 15 0 C 6.984375 0 0.484375 6.5 0.484375 14.515625 C 0.484375 22.53125 6.984375 29.03125 15 29.03125 C 23.015625 29.03125 29.515625 22.53125 29.515625 14.515625 C 29.515625 6.5 23.015625 0 15 0 Z M 15 0 " clip-rule="nonzero"/></clipPath><clipPath id="4a6a2140ac"><rect x="0" width="30" y="0" height="30"/></clipPath><clipPath id="1d7c9a7bcc"><path d="M 0.503906 0.0390625 L 23.496094 0.0390625 L 23.496094 10.492188 L 0.503906 10.492188 Z M 0.503906 0.0390625 " clip-rule="nonzero"/></clipPath><clipPath id="7c810d1f6b"><path d="M 13.742188 7.484375 L 16.066406 7.484375 L 16.066406 9.808594 L 13.742188 9.808594 Z M 13.742188 7.484375 " clip-rule="nonzero"/></clipPath><clipPath id="beb08d417a"><path d="M 14.90625 7.484375 C 15.214844 7.484375 15.507812 7.605469 15.726562 7.824219 C 15.945312 8.042969 16.066406 8.339844 16.066406 8.648438 C 16.066406 8.953125 15.945312 9.25 15.726562 9.46875 C 15.507812 9.6875 15.214844 9.808594 14.90625 9.808594 C 14.597656 9.808594 14.300781 9.6875 14.085938 9.46875 C 13.867188 9.25 13.742188 8.953125 13.742188 8.648438 C 13.742188 8.339844 13.867188 8.042969 14.085938 7.824219 C 14.300781 7.605469 14.597656 7.484375 14.90625 7.484375 Z M 14.90625 7.484375 " clip-rule="nonzero"/></clipPath><clipPath id="598fda129d"><path d="M 0.742188 0.484375 L 3.066406 0.484375 L 3.066406 2.808594 L 0.742188 2.808594 Z M 0.742188 0.484375 " clip-rule="nonzero"/></clipPath><clipPath id="8c9fd43875"><path d="M 1.90625 0.484375 C 2.214844 0.484375 2.507812 0.605469 2.726562 0.824219 C 2.945312 1.042969 3.066406 1.339844 3.066406 1.648438 C 3.066406 1.953125 2.945312 2.25 2.726562 2.46875 C 2.507812 2.6875 2.214844 2.808594 1.90625 2.808594 C 1.597656 2.808594 1.300781 2.6875 1.085938 2.46875 C 0.867188 2.25 0.742188 1.953125 0.742188 1.648438 C 0.742188 1.339844 0.867188 1.042969 1.085938 0.824219 C 1.300781 0.605469 1.597656 0.484375 1.90625 0.484375 Z M 1.90625 0.484375 " clip-rule="nonzero"/></clipPath><clipPath id="b4a180d9c5"><rect x="0" width="4" y="0" height="3"/></clipPath><clipPath id="3d16f45759"><rect x="0" width="24" y="0" height="11"/></clipPath><clipPath id="7c71319616"><path d="M 0.453125 0.367188 L 2 0.367188 L 2 1.992188 L 0.453125 1.992188 Z M 0.453125 0.367188 " clip-rule="nonzero"/></clipPath><clipPath id="c87a85279b"><path d="M 1 0.367188 L 3 0.367188 L 3 1.992188 L 1 1.992188 Z M 1 0.367188 " clip-rule="nonzero"/></clipPath><clipPath id="ffa64c986d"><path d="M 2 0.367188 L 4 0.367188 L 4 1.992188 L 2 1.992188 Z M 2 0.367188 " clip-rule="nonzero"/></clipPath><clipPath id="0a3ed97f9f"><path d="M 3 0.367188 L 5 0.367188 L 5 1.992188 L 3 1.992188 Z M 3 0.367188 " clip-rule="nonzero"/></clipPath><clipPath id="ee02f6ec24"><path d="M 4 0.367188 L 5 0.367188 L 5 1.992188 L 4 1.992188 Z M 4 0.367188 " clip-rule="nonzero"/></clipPath><clipPath id="9bdfca1475"><path d="M 5 0.367188 L 6 0.367188 L 6 1.992188 L 5 1.992188 Z M 5 0.367188 " clip-rule="nonzero"/></clipPath><clipPath id="a8a7e90c17"><path d="M 6 0.367188 L 8 0.367188 L 8 1.992188 L 6 1.992188 Z M 6 0.367188 " clip-rule="nonzero"/></clipPath><clipPath id="acf823a734"><path d="M 7 1 L 8 1 L 8 1.992188 L 7 1.992188 Z M 7 1 " clip-rule="nonzero"/></clipPath><clipPath id="6a2a18c1b1"><path d="M 7 0.367188 L 9 0.367188 L 9 1.992188 L 7 1.992188 Z M 7 0.367188 " clip-rule="nonzero"/></clipPath><clipPath id="cbaed77d91"><path d="M 8 0.367188 L 10 0.367188 L 10 1.992188 L 8 1.992188 Z M 8 0.367188 " clip-rule="nonzero"/></clipPath><clipPath id="6d3244529f"><path d="M 9 0.367188 L 11 0.367188 L 11 1.992188 L 9 1.992188 Z M 9 0.367188 " clip-rule="nonzero"/></clipPath><clipPath id="b3032e35bb"><path d="M 11 0.367188 L 12 0.367188 L 12 1.992188 L 11 1.992188 Z M 11 0.367188 " clip-rule="nonzero"/></clipPath><clipPath id="feee281f91"><path d="M 12 0.367188 L 13 0.367188 L 13 1.992188 L 12 1.992188 Z M 12 0.367188 " clip-rule="nonzero"/></clipPath><clipPath id="a7ade13ee9"><path d="M 12 0.367188 L 14 0.367188 L 14 1.992188 L 12 1.992188 Z M 12 0.367188 " clip-rule="nonzero"/></clipPath><clipPath id="5d306c0db3"><path d="M 13 0.367188 L 15 0.367188 L 15 1.992188 L 13 1.992188 Z M 13 0.367188 " clip-rule="nonzero"/></clipPath><clipPath id="5e0405dea7"><path d="M 14 0.367188 L 15.78125 0.367188 L 15.78125 1.992188 L 14 1.992188 Z M 14 0.367188 " clip-rule="nonzero"/></clipPath><clipPath id="5d224ebb7a"><rect x="0" width="16" y="0" height="2"/></clipPath><clipPath id="8331af5d5b"><rect x="0" width="26" y="0" height="5"/></clipPath></defs><g clip-path="url(#108ce7355f)"><g clip-path="url(#617b5649e1)"><g transform="matrix(1, 0, 0, 1, 0, 0.000000000000005692)"><g clip-path="url(#4a6a2140ac)"><g clip-path="url(#bd2453b2bb)"><g clip-path="url(#57aef84f9b)"><path fill="#ffffff" d="M 0.484375 0 L 29.515625 0 L 29.515625 29.03125 L 0.484375 29.03125 Z M 0.484375 0 " fill-opacity="1" fill-rule="nonzero"/></g></g></g></g></g></g><g transform="matrix(1, 0, 0, 1, 3, 6)"><g clip-path="url(#3d16f45759)"><g clip-path="url(#1d7c9a7bcc)"><path stroke-linecap="round" transform="matrix(0.0816663, -0.0816663, 0.0816663, 0.0816663, 6.412314, 8.586665)" fill="none" stroke-linejoin="miter" d="M 10.992563 10.983657 L 92.330591 11.007573 " stroke="#81afc3" stroke-width="22" stroke-opacity="1" stroke-miterlimit="4"/><path stroke-linecap="round" transform="matrix(-0.0816663, -0.0816663, 0.0816663, -0.0816663, 21.60536, 10.44207)" fill="none" stroke-linejoin="miter" d="M 11.004717 11.006046 L 92.318829 11.006046 " stroke="#81afc3" stroke-width="22" stroke-opacity="1" stroke-miterlimit="4"/><path stroke-linecap="round" transform="matrix(0.0816663, -0.0816663, 0.0816663, 0.0816663, 0.59637, 8.586665)" fill="none" stroke-linejoin="miter" d="M 11.013647 11.004741 L 92.327759 11.004741 " stroke="#81afc3" stroke-width="22" stroke-opacity="1" stroke-miterlimit="4"/></g><g clip-path="url(#7c810d1f6b)"><g clip-path="url(#beb08d417a)"><g transform="matrix(1, 0, 0, 1, 13, 7)"><g clip-path="url(#b4a180d9c5)"><g clip-path="url(#598fda129d)"><g clip-path="url(#8c9fd43875)"><path fill="#81afc3" d="M 0.742188 0.484375 L 3.066406 0.484375 L 3.066406 2.808594 L 0.742188 2.808594 Z M 0.742188 0.484375 " fill-opacity="1" fill-rule="nonzero"/></g></g></g></g></g></g></g></g><g transform="matrix(1, 0, 0, 1, 7, 21)"><g clip-path="url(#5d224ebb7a)"><g clip-path="url(#7c71319616)"><g fill="#383535" fill-opacity="1"><g transform="translate(0.530552, 1.472878)"><g><path d="M 0.46875 -0.859375 C 0.539062 -0.859375 0.601562 -0.84375 0.65625 -0.8125 C 0.71875 -0.789062 0.765625 -0.753906 0.796875 -0.703125 C 0.828125 -0.660156 0.84375 -0.609375 0.84375 -0.546875 C 0.84375 -0.484375 0.828125 -0.425781 0.796875 -0.375 C 0.765625 -0.332031 0.71875 -0.296875 0.65625 -0.265625 C 0.601562 -0.242188 0.539062 -0.234375 0.46875 -0.234375 L 0.296875 -0.234375 L 0.296875 0 L 0.09375 0 L 0.09375 -0.859375 Z M 0.453125 -0.390625 C 0.515625 -0.390625 0.5625 -0.398438 0.59375 -0.421875 C 0.625 -0.453125 0.640625 -0.492188 0.640625 -0.546875 C 0.640625 -0.585938 0.625 -0.617188 0.59375 -0.640625 C 0.5625 -0.671875 0.515625 -0.6875 0.453125 -0.6875 L 0.296875 -0.6875 L 0.296875 -0.390625 Z M 0.453125 -0.390625 "/></g></g></g></g><g clip-path="url(#c87a85279b)"><g fill="#383535" fill-opacity="1"><g transform="translate(1.509413, 1.472878)"><g><path d="M 0.640625 0 L 0.484375 -0.234375 L 0.296875 -0.234375 L 0.296875 0 L 0.09375 0 L 0.09375 -0.859375 L 0.46875 -0.859375 C 0.539062 -0.859375 0.601562 -0.84375 0.65625 -0.8125 C 0.71875 -0.789062 0.765625 -0.753906 0.796875 -0.703125 C 0.828125 -0.660156 0.84375 -0.609375 0.84375 -0.546875 C 0.84375 -0.484375 0.828125 -0.425781 0.796875 -0.375 C 0.765625 -0.332031 0.722656 -0.300781 0.671875 -0.28125 L 0.859375 0 Z M 0.640625 -0.546875 C 0.640625 -0.585938 0.625 -0.617188 0.59375 -0.640625 C 0.5625 -0.671875 0.515625 -0.6875 0.453125 -0.6875 L 0.296875 -0.6875 L 0.296875 -0.390625 L 0.453125 -0.390625 C 0.515625 -0.390625 0.5625 -0.398438 0.59375 -0.421875 C 0.625 -0.453125 0.640625 -0.492188 0.640625 -0.546875 Z M 0.640625 -0.546875 "/></g></g></g></g><g clip-path="url(#ffa64c986d)"><g fill="#383535" fill-opacity="1"><g transform="translate(2.491904, 1.472878)"><g><path d="M 0.765625 -0.15625 L 0.765625 0 L 0.09375 0 L 0.09375 -0.859375 L 0.75 -0.859375 L 0.75 -0.6875 L 0.296875 -0.6875 L 0.296875 -0.515625 L 0.6875 -0.515625 L 0.6875 -0.359375 L 0.296875 -0.359375 L 0.296875 -0.15625 Z M 0.765625 -0.15625 "/></g></g></g></g><g clip-path="url(#0a3ed97f9f)"><g fill="#383535" fill-opacity="1"><g transform="translate(3.396965, 1.472878)"><g><path d="M 0.875 0 L 0.875 -0.515625 L 0.625 -0.09375 L 0.53125 -0.09375 L 0.28125 -0.5 L 0.28125 0 L 0.09375 0 L 0.09375 -0.859375 L 0.265625 -0.859375 L 0.578125 -0.328125 L 0.890625 -0.859375 L 1.0625 -0.859375 L 1.0625 0 Z M 0.875 0 "/></g></g></g></g><g clip-path="url(#ee02f6ec24)"><g fill="#383535" fill-opacity="1"><g transform="translate(4.645619, 1.472878)"><g><path d="M 0.09375 -0.859375 L 0.296875 -0.859375 L 0.296875 0 L 0.09375 0 Z M 0.09375 -0.859375 "/></g></g></g></g><g clip-path="url(#9bdfca1475)"><g fill="#383535" fill-opacity="1"><g transform="translate(5.135706, 1.472878)"><g><path d="M 0.484375 0.015625 C 0.359375 0.015625 0.257812 -0.015625 0.1875 -0.078125 C 0.125 -0.148438 0.09375 -0.25 0.09375 -0.375 L 0.09375 -0.859375 L 0.296875 -0.859375 L 0.296875 -0.375 C 0.296875 -0.226562 0.359375 -0.15625 0.484375 -0.15625 C 0.546875 -0.15625 0.59375 -0.171875 0.625 -0.203125 C 0.65625 -0.242188 0.671875 -0.300781 0.671875 -0.375 L 0.671875 -0.859375 L 0.859375 -0.859375 L 0.859375 -0.375 C 0.859375 -0.25 0.820312 -0.148438 0.75 -0.078125 C 0.6875 -0.015625 0.597656 0.015625 0.484375 0.015625 Z M 0.484375 0.015625 "/></g></g></g></g><g clip-path="url(#a8a7e90c17)"><g fill="#383535" fill-opacity="1"><g transform="translate(6.182318, 1.472878)"><g><path d="M 0.875 0 L 0.875 -0.515625 L 0.625 -0.09375 L 0.53125 -0.09375 L 0.28125 -0.5 L 0.28125 0 L 0.09375 0 L 0.09375 -0.859375 L 0.265625 -0.859375 L 0.578125 -0.328125 L 0.890625 -0.859375 L 1.0625 -0.859375 L 1.0625 0 Z M 0.875 0 "/></g></g></g></g><g clip-path="url(#acf823a734)"><g fill="#383535" fill-opacity="1"><g transform="translate(7.430972, 1.472878)"><g/></g></g></g><g clip-path="url(#6a2a18c1b1)"><g fill="#383535" fill-opacity="1"><g transform="translate(7.866616, 1.472878)"><g><path d="M 0.46875 -0.859375 C 0.539062 -0.859375 0.601562 -0.84375 0.65625 -0.8125 C 0.71875 -0.789062 0.765625 -0.753906 0.796875 -0.703125 C 0.828125 -0.660156 0.84375 -0.609375 0.84375 -0.546875 C 0.84375 -0.484375 0.828125 -0.425781 0.796875 -0.375 C 0.765625 -0.332031 0.71875 -0.296875 0.65625 -0.265625 C 0.601562 -0.242188 0.539062 -0.234375 0.46875 -0.234375 L 0.296875 -0.234375 L 0.296875 0 L 0.09375 0 L 0.09375 -0.859375 Z M 0.453125 -0.390625 C 0.515625 -0.390625 0.5625 -0.398438 0.59375 -0.421875 C 0.625 -0.453125 0.640625 -0.492188 0.640625 -0.546875 C 0.640625 -0.585938 0.625 -0.617188 0.59375 -0.640625 C 0.5625 -0.671875 0.515625 -0.6875 0.453125 -0.6875 L 0.296875 -0.6875 L 0.296875 -0.390625 Z M 0.453125 -0.390625 "/></g></g></g></g><g clip-path="url(#cbaed77d91)"><g fill="#383535" fill-opacity="1"><g transform="translate(8.845477, 1.472878)"><g><path d="M 0.640625 0 L 0.484375 -0.234375 L 0.296875 -0.234375 L 0.296875 0 L 0.09375 0 L 0.09375 -0.859375 L 0.46875 -0.859375 C 0.539062 -0.859375 0.601562 -0.84375 0.65625 -0.8125 C 0.71875 -0.789062 0.765625 -0.753906 0.796875 -0.703125 C 0.828125 -0.660156 0.84375 -0.609375 0.84375 -0.546875 C 0.84375 -0.484375 0.828125 -0.425781 0.796875 -0.375 C 0.765625 -0.332031 0.722656 -0.300781 0.671875 -0.28125 L 0.859375 0 Z M 0.640625 -0.546875 C 0.640625 -0.585938 0.625 -0.617188 0.59375 -0.640625 C 0.5625 -0.671875 0.515625 -0.6875 0.453125 -0.6875 L 0.296875 -0.6875 L 0.296875 -0.390625 L 0.453125 -0.390625 C 0.515625 -0.390625 0.5625 -0.398438 0.59375 -0.421875 C 0.625 -0.453125 0.640625 -0.492188 0.640625 -0.546875 Z M 0.640625 -0.546875 "/></g></g></g></g><g clip-path="url(#6d3244529f)"><g fill="#383535" fill-opacity="1"><g transform="translate(9.827967, 1.472878)"><g><path d="M 0.515625 0.015625 C 0.421875 0.015625 0.335938 0 0.265625 -0.03125 C 0.203125 -0.0703125 0.148438 -0.125 0.109375 -0.1875 C 0.0664062 -0.257812 0.046875 -0.335938 0.046875 -0.421875 C 0.046875 -0.503906 0.0664062 -0.578125 0.109375 -0.640625 C 0.148438 -0.710938 0.203125 -0.769531 0.265625 -0.8125 C 0.335938 -0.851562 0.421875 -0.875 0.515625 -0.875 C 0.597656 -0.875 0.675781 -0.851562 0.75 -0.8125 C 0.820312 -0.769531 0.878906 -0.710938 0.921875 -0.640625 C 0.960938 -0.578125 0.984375 -0.503906 0.984375 -0.421875 C 0.984375 -0.335938 0.960938 -0.257812 0.921875 -0.1875 C 0.878906 -0.125 0.820312 -0.0703125 0.75 -0.03125 C 0.675781 0 0.597656 0.015625 0.515625 0.015625 Z M 0.515625 -0.15625 C 0.566406 -0.15625 0.613281 -0.164062 0.65625 -0.1875 C 0.695312 -0.207031 0.726562 -0.238281 0.75 -0.28125 C 0.769531 -0.320312 0.78125 -0.367188 0.78125 -0.421875 C 0.78125 -0.472656 0.769531 -0.519531 0.75 -0.5625 C 0.726562 -0.601562 0.695312 -0.632812 0.65625 -0.65625 C 0.613281 -0.6875 0.566406 -0.703125 0.515625 -0.703125 C 0.460938 -0.703125 0.414062 -0.6875 0.375 -0.65625 C 0.332031 -0.632812 0.300781 -0.601562 0.28125 -0.5625 C 0.257812 -0.519531 0.25 -0.472656 0.25 -0.421875 C 0.25 -0.367188 0.257812 -0.320312 0.28125 -0.28125 C 0.300781 -0.238281 0.332031 -0.207031 0.375 -0.1875 C 0.414062 -0.164062 0.460938 -0.15625 0.515625 -0.15625 Z M 0.515625 -0.15625 "/></g></g></g></g><g clip-path="url(#b3032e35bb)"><g fill="#383535" fill-opacity="1"><g transform="translate(10.942331, 1.472878)"><g><path d="M 0.46875 -0.859375 C 0.539062 -0.859375 0.601562 -0.84375 0.65625 -0.8125 C 0.71875 -0.789062 0.765625 -0.753906 0.796875 -0.703125 C 0.828125 -0.660156 0.84375 -0.609375 0.84375 -0.546875 C 0.84375 -0.484375 0.828125 -0.425781 0.796875 -0.375 C 0.765625 -0.332031 0.71875 -0.296875 0.65625 -0.265625 C 0.601562 -0.242188 0.539062 -0.234375 0.46875 -0.234375 L 0.296875 -0.234375 L 0.296875 0 L 0.09375 0 L 0.09375 -0.859375 Z M 0.453125 -0.390625 C 0.515625 -0.390625 0.5625 -0.398438 0.59375 -0.421875 C 0.625 -0.453125 0.640625 -0.492188 0.640625 -0.546875 C 0.640625 -0.585938 0.625 -0.617188 0.59375 -0.640625 C 0.5625 -0.671875 0.515625 -0.6875 0.453125 -0.6875 L 0.296875 -0.6875 L 0.296875 -0.390625 Z M 0.453125 -0.390625 "/></g></g></g></g><g clip-path="url(#feee281f91)"><g fill="#383535" fill-opacity="1"><g transform="translate(11.921192, 1.472878)"><g><path d="M 0.765625 -0.15625 L 0.765625 0 L 0.09375 0 L 0.09375 -0.859375 L 0.75 -0.859375 L 0.75 -0.6875 L 0.296875 -0.6875 L 0.296875 -0.515625 L 0.6875 -0.515625 L 0.6875 -0.359375 L 0.296875 -0.359375 L 0.296875 -0.15625 Z M 0.765625 -0.15625 "/></g></g></g></g><g clip-path="url(#a7ade13ee9)"><g fill="#383535" fill-opacity="1"><g transform="translate(12.826252, 1.472878)"><g><path d="M 0.640625 0 L 0.484375 -0.234375 L 0.296875 -0.234375 L 0.296875 0 L 0.09375 0 L 0.09375 -0.859375 L 0.46875 -0.859375 C 0.539062 -0.859375 0.601562 -0.84375 0.65625 -0.8125 C 0.71875 -0.789062 0.765625 -0.753906 0.796875 -0.703125 C 0.828125 -0.660156 0.84375 -0.609375 0.84375 -0.546875 C 0.84375 -0.484375 0.828125 -0.425781 0.796875 -0.375 C 0.765625 -0.332031 0.722656 -0.300781 0.671875 -0.28125 L 0.859375 0 Z M 0.640625 -0.546875 C 0.640625 -0.585938 0.625 -0.617188 0.59375 -0.640625 C 0.5625 -0.671875 0.515625 -0.6875 0.453125 -0.6875 L 0.296875 -0.6875 L 0.296875 -0.390625 L 0.453125 -0.390625 C 0.515625 -0.390625 0.5625 -0.398438 0.59375 -0.421875 C 0.625 -0.453125 0.640625 -0.492188 0.640625 -0.546875 Z M 0.640625 -0.546875 "/></g></g></g></g><g clip-path="url(#5d306c0db3)"><g fill="#383535" fill-opacity="1"><g transform="translate(13.808743, 1.472878)"><g><path d="M 0.28125 -0.6875 L 0 -0.6875 L 0 -0.859375 L 0.75 -0.859375 L 0.75 -0.6875 L 0.46875 -0.6875 L 0.46875 0 L 0.28125 0 Z M 0.28125 -0.6875 "/></g></g></g></g><g clip-path="url(#5e0405dea7)"><g fill="#383535" fill-opacity="1"><g transform="translate(14.649683, 1.472878)"><g><path d="M 0.515625 -0.296875 L 0.515625 0 L 0.3125 0 L 0.3125 -0.3125 L -0.015625 -0.859375 L 0.1875 -0.859375 L 0.421875 -0.46875 L 0.640625 -0.859375 L 0.84375 -0.859375 Z M 0.515625 -0.296875 "/></g></g></g></g></g></g><g transform="matrix(1, 0, 0, 1, 2, 17)"><g clip-path="url(#8331af5d5b)"><g fill="#383535" fill-opacity="1"><g transform="translate(0.988963, 3.590941)"><g><path d="M 1.90625 0 L 1.40625 -0.703125 C 1.382812 -0.703125 1.351562 -0.703125 1.3125 -0.703125 L 0.78125 -0.703125 L 0.78125 0 L 0.328125 0 L 0.328125 -2.421875 L 1.3125 -2.421875 C 1.53125 -2.421875 1.710938 -2.382812 1.859375 -2.3125 C 2.015625 -2.238281 2.132812 -2.140625 2.21875 -2.015625 C 2.300781 -1.890625 2.34375 -1.738281 2.34375 -1.5625 C 2.34375 -1.375 2.296875 -1.210938 2.203125 -1.078125 C 2.117188 -0.953125 1.992188 -0.859375 1.828125 -0.796875 L 2.390625 0 Z M 1.890625 -1.5625 C 1.890625 -1.707031 1.835938 -1.820312 1.734375 -1.90625 C 1.640625 -1.988281 1.492188 -2.03125 1.296875 -2.03125 L 0.78125 -2.03125 L 0.78125 -1.078125 L 1.296875 -1.078125 C 1.492188 -1.078125 1.640625 -1.117188 1.734375 -1.203125 C 1.835938 -1.285156 1.890625 -1.40625 1.890625 -1.5625 Z M 1.890625 -1.5625 "/></g></g></g><g fill="#383535" fill-opacity="1"><g transform="translate(3.516439, 3.590941)"><g><path d="M 2.140625 -0.375 L 2.140625 0 L 0.328125 0 L 0.328125 -2.421875 L 2.09375 -2.421875 L 2.09375 -2.046875 L 0.78125 -2.046875 L 0.78125 -1.40625 L 1.9375 -1.40625 L 1.9375 -1.046875 L 0.78125 -1.046875 L 0.78125 -0.375 Z M 2.140625 -0.375 "/></g></g></g><g fill="#383535" fill-opacity="1"><g transform="translate(5.833005, 3.590941)"><g><path d="M 1.890625 -0.5625 L 0.6875 -0.5625 L 0.453125 0 L -0.015625 0 L 1.078125 -2.421875 L 1.515625 -2.421875 L 2.609375 0 L 2.140625 0 Z M 1.75 -0.90625 L 1.28125 -1.96875 L 0.828125 -0.90625 Z M 1.75 -0.90625 "/></g></g></g><g fill="#383535" fill-opacity="1"><g transform="translate(8.422719, 3.590941)"><g><path d="M 0.328125 -2.421875 L 0.78125 -2.421875 L 0.78125 -0.375 L 2.03125 -0.375 L 2.03125 0 L 0.328125 0 Z M 0.328125 -2.421875 "/></g></g></g><g fill="#383535" fill-opacity="1"><g transform="translate(10.493797, 3.590941)"><g/></g></g><g fill="#383535" fill-opacity="1"><g transform="translate(11.448085, 3.590941)"><g><path d="M 2.140625 -0.375 L 2.140625 0 L 0.328125 0 L 0.328125 -2.421875 L 2.09375 -2.421875 L 2.09375 -2.046875 L 0.78125 -2.046875 L 0.78125 -1.40625 L 1.9375 -1.40625 L 1.9375 -1.046875 L 0.78125 -1.046875 L 0.78125 -0.375 Z M 2.140625 -0.375 "/></g></g></g><g fill="#383535" fill-opacity="1"><g transform="translate(13.76465, 3.590941)"><g><path d="M 1.078125 0.03125 C 0.890625 0.03125 0.707031 0.00390625 0.53125 -0.046875 C 0.351562 -0.0976562 0.21875 -0.164062 0.125 -0.25 L 0.28125 -0.609375 C 0.375 -0.523438 0.492188 -0.457031 0.640625 -0.40625 C 0.785156 -0.363281 0.929688 -0.34375 1.078125 -0.34375 C 1.253906 -0.34375 1.382812 -0.367188 1.46875 -0.421875 C 1.5625 -0.484375 1.609375 -0.5625 1.609375 -0.65625 C 1.609375 -0.71875 1.582031 -0.769531 1.53125 -0.8125 C 1.476562 -0.863281 1.414062 -0.898438 1.34375 -0.921875 C 1.269531 -0.953125 1.164062 -0.984375 1.03125 -1.015625 C 0.851562 -1.054688 0.707031 -1.097656 0.59375 -1.140625 C 0.476562 -1.191406 0.378906 -1.257812 0.296875 -1.34375 C 0.210938 -1.4375 0.171875 -1.566406 0.171875 -1.734375 C 0.171875 -1.867188 0.207031 -1.988281 0.28125 -2.09375 C 0.351562 -2.207031 0.460938 -2.296875 0.609375 -2.359375 C 0.753906 -2.421875 0.929688 -2.453125 1.140625 -2.453125 C 1.296875 -2.453125 1.441406 -2.429688 1.578125 -2.390625 C 1.722656 -2.359375 1.847656 -2.304688 1.953125 -2.234375 L 1.8125 -1.890625 C 1.707031 -1.953125 1.597656 -2 1.484375 -2.03125 C 1.367188 -2.0625 1.253906 -2.078125 1.140625 -2.078125 C 0.960938 -2.078125 0.832031 -2.046875 0.75 -1.984375 C 0.664062 -1.929688 0.625 -1.851562 0.625 -1.75 C 0.625 -1.675781 0.644531 -1.617188 0.6875 -1.578125 C 0.738281 -1.535156 0.800781 -1.5 0.875 -1.46875 C 0.957031 -1.445312 1.0625 -1.421875 1.1875 -1.390625 C 1.363281 -1.347656 1.507812 -1.300781 1.625 -1.25 C 1.75 -1.207031 1.847656 -1.140625 1.921875 -1.046875 C 2.003906 -0.960938 2.046875 -0.84375 2.046875 -0.6875 C 2.046875 -0.550781 2.007812 -0.425781 1.9375 -0.3125 C 1.863281 -0.207031 1.753906 -0.125 1.609375 -0.0625 C 1.460938 0 1.285156 0.03125 1.078125 0.03125 Z M 1.078125 0.03125 "/></g></g></g><g fill="#383535" fill-opacity="1"><g transform="translate(15.939456, 3.590941)"><g><path d="M 0.8125 -2.03125 L 0.015625 -2.03125 L 0.015625 -2.421875 L 2.0625 -2.421875 L 2.0625 -2.03125 L 1.265625 -2.03125 L 1.265625 0 L 0.8125 0 Z M 0.8125 -2.03125 "/></g></g></g><g fill="#383535" fill-opacity="1"><g transform="translate(18.020907, 3.590941)"><g><path d="M 1.890625 -0.5625 L 0.6875 -0.5625 L 0.453125 0 L -0.015625 0 L 1.078125 -2.421875 L 1.515625 -2.421875 L 2.609375 0 L 2.140625 0 Z M 1.75 -0.90625 L 1.28125 -1.96875 L 0.828125 -0.90625 Z M 1.75 -0.90625 "/></g></g></g><g fill="#383535" fill-opacity="1"><g transform="translate(20.610621, 3.590941)"><g><path d="M 0.8125 -2.03125 L 0.015625 -2.03125 L 0.015625 -2.421875 L 2.0625 -2.421875 L 2.0625 -2.03125 L 1.265625 -2.03125 L 1.265625 0 L 0.8125 0 Z M 0.8125 -2.03125 "/></g></g></g><g fill="#383535" fill-opacity="1"><g transform="translate(22.692073, 3.590941)"><g><path d="M 2.140625 -0.375 L 2.140625 0 L 0.328125 0 L 0.328125 -2.421875 L 2.09375 -2.421875 L 2.09375 -2.046875 L 0.78125 -2.046875 L 0.78125 -1.40625 L 1.9375 -1.40625 L 1.9375 -1.046875 L 0.78125 -1.046875 L 0.78125 -0.375 Z M 2.140625 -0.375 "/></g></g></g></g></g></svg>