<svg xmlns="http://www.w3.org/2000/svg" xmlns:xlink="http://www.w3.org/1999/xlink" width="40" zoomAndPan="magnify" viewBox="0 0 30 30.000001" height="40" preserveAspectRatio="xMidYMid meet" version="1.0"><defs><clipPath id="92fa4b9a00"><path d="M 3.382812 10.042969 L 16.449219 10.042969 L 16.449219 19.476562 L 3.382812 19.476562 Z M 3.382812 10.042969 " clip-rule="nonzero"/></clipPath></defs><path stroke-linecap="round" transform="matrix(0.725806, -0.00000000000000009, 0.00000000000000009, 0.725806, 5.5625, 13.530896)" fill="none" stroke-linejoin="miter" d="M 1.501563 1.502051 L 27.501737 1.502051 " stroke="#81afc3" stroke-width="3" stroke-opacity="1" stroke-miterlimit="4"/><g clip-path="url(#92fa4b9a00)"><path fill="#81afc3" d="M 3.460938 14.25 C 3.445312 14.292969 3.429688 14.335938 3.421875 14.378906 L 3.402344 14.4375 C 3.378906 14.570312 3.378906 14.703125 3.402344 14.832031 L 3.421875 14.890625 C 3.429688 14.933594 3.445312 14.976562 3.460938 15.019531 L 3.480469 15.0625 C 3.527344 15.167969 3.59375 15.261719 3.675781 15.347656 L 7.363281 19.035156 C 7.5625 19.21875 7.796875 19.308594 8.070312 19.304688 C 8.339844 19.300781 8.570312 19.203125 8.761719 19.011719 C 8.953125 18.820312 9.050781 18.589844 9.058594 18.316406 C 9.0625 18.046875 8.972656 17.8125 8.785156 17.613281 L 6.816406 15.640625 L 15.792969 15.640625 C 15.925781 15.640625 16.054688 15.617188 16.179688 15.566406 C 16.300781 15.515625 16.410156 15.441406 16.503906 15.347656 C 16.597656 15.253906 16.671875 15.144531 16.722656 15.019531 C 16.773438 14.898438 16.800781 14.769531 16.800781 14.636719 C 16.800781 14.5 16.773438 14.375 16.722656 14.25 C 16.671875 14.125 16.597656 14.019531 16.503906 13.921875 C 16.410156 13.828125 16.300781 13.757812 16.179688 13.707031 C 16.054688 13.65625 15.925781 13.628906 15.792969 13.628906 L 6.816406 13.628906 L 8.789062 11.65625 C 8.890625 11.5625 8.96875 11.453125 9.023438 11.332031 C 9.078125 11.207031 9.109375 11.074219 9.109375 10.9375 C 9.113281 10.800781 9.089844 10.671875 9.039062 10.542969 C 8.984375 10.417969 8.914062 10.304688 8.816406 10.210938 C 8.71875 10.113281 8.609375 10.039062 8.480469 9.988281 C 8.355469 9.9375 8.222656 9.914062 8.085938 9.914062 C 7.949219 9.917969 7.820312 9.945312 7.695312 10 C 7.570312 10.058594 7.460938 10.136719 7.367188 10.234375 L 3.679688 13.925781 C 3.597656 14.007812 3.53125 14.101562 3.484375 14.210938 Z M 3.460938 14.25 " fill-opacity="1" fill-rule="nonzero"/></g></svg>