<svg xmlns="http://www.w3.org/2000/svg" xmlns:xlink="http://www.w3.org/1999/xlink" width="40" zoomAndPan="magnify" viewBox="0 0 30 30.000001" height="40" preserveAspectRatio="xMidYMid meet" version="1.0"><defs><clipPath id="bcb273c847"><path d="M 13.542969 9.757812 L 26.605469 9.757812 L 26.605469 19.195312 L 13.542969 19.195312 Z M 13.542969 9.757812 " clip-rule="nonzero"/></clipPath></defs><path stroke-linecap="round" transform="matrix(-0.725806, 0, 0, -0.725806, 24.435483, 15.708316)" fill="none" stroke-linejoin="miter" d="M 1.498784 1.49795 L 27.50434 1.49795 " stroke="#81afc3" stroke-width="3" stroke-opacity="1" stroke-miterlimit="4"/><g clip-path="url(#bcb273c847)"><path fill="#81afc3" d="M 26.53125 14.988281 C 26.546875 14.945312 26.558594 14.902344 26.570312 14.855469 L 26.585938 14.800781 C 26.613281 14.667969 26.613281 14.535156 26.585938 14.402344 L 26.570312 14.347656 C 26.558594 14.300781 26.546875 14.257812 26.53125 14.214844 L 26.511719 14.175781 C 26.460938 14.070312 26.398438 13.972656 26.316406 13.890625 L 22.625 10.203125 C 22.425781 10.015625 22.191406 9.925781 21.921875 9.929688 C 21.652344 9.9375 21.421875 10.035156 21.226562 10.226562 C 21.035156 10.417969 20.9375 10.648438 20.933594 10.917969 C 20.929688 11.191406 21.019531 11.425781 21.203125 11.625 L 23.171875 13.59375 L 14.195312 13.59375 C 14.0625 13.59375 13.933594 13.621094 13.8125 13.671875 C 13.6875 13.722656 13.582031 13.796875 13.484375 13.890625 C 13.390625 13.984375 13.320312 14.09375 13.269531 14.214844 C 13.214844 14.339844 13.191406 14.46875 13.191406 14.601562 C 13.191406 14.734375 13.214844 14.863281 13.269531 14.988281 C 13.320312 15.109375 13.390625 15.21875 13.484375 15.3125 C 13.582031 15.40625 13.6875 15.480469 13.8125 15.53125 C 13.933594 15.582031 14.0625 15.609375 14.195312 15.609375 L 23.171875 15.609375 L 21.199219 17.578125 C 21.101562 17.671875 21.023438 17.78125 20.96875 17.90625 C 20.910156 18.03125 20.882812 18.160156 20.878906 18.296875 C 20.878906 18.433594 20.902344 18.566406 20.953125 18.691406 C 21.003906 18.820312 21.078125 18.929688 21.175781 19.027344 C 21.269531 19.125 21.382812 19.199219 21.507812 19.25 C 21.636719 19.300781 21.769531 19.324219 21.902344 19.324219 C 22.039062 19.320312 22.171875 19.289062 22.296875 19.234375 C 22.421875 19.179688 22.53125 19.101562 22.621094 19.003906 L 26.3125 15.3125 C 26.394531 15.230469 26.457031 15.132812 26.507812 15.027344 Z M 26.53125 14.988281 " fill-opacity="1" fill-rule="nonzero"/></g></svg>