<svg xmlns="http://www.w3.org/2000/svg" xmlns:xlink="http://www.w3.org/1999/xlink" width="40" zoomAndPan="magnify" viewBox="0 0 30 30.000001" height="40" preserveAspectRatio="xMidYMid meet" version="1.0"><defs><clipPath id="c6d123dbdf"><path d="M 4.566406 3.566406 L 25.613281 3.566406 L 25.613281 25.339844 L 4.566406 25.339844 Z M 4.566406 3.566406 " clip-rule="nonzero"/></clipPath></defs><g clip-path="url(#c6d123dbdf)"><path fill="#81afc3" d="M 4.570312 4.609375 C 4.570312 4.03125 5.039062 3.566406 5.613281 3.566406 L 24.386719 3.566406 C 24.960938 3.566406 25.429688 4.03125 25.429688 4.609375 L 25.429688 7.734375 C 25.429688 8.039062 25.292969 8.328125 25.0625 8.527344 L 18.128906 14.472656 L 18.128906 22.335938 C 18.128906 22.730469 17.90625 23.089844 17.550781 23.269531 L 13.378906 25.351562 C 13.058594 25.515625 12.679688 25.5 12.371094 25.3125 C 12.066406 25.125 11.878906 24.796875 11.871094 24.4375 L 11.714844 14.472656 L 4.925781 8.519531 C 4.699219 8.320312 4.570312 8.035156 4.570312 7.734375 Z M 6.65625 5.648438 L 6.65625 7.261719 L 13.4375 13.207031 C 13.660156 13.402344 13.789062 13.683594 13.792969 13.976562 L 13.929688 22.746094 L 16.042969 21.691406 L 16.042969 13.992188 C 16.042969 13.6875 16.175781 13.398438 16.40625 13.199219 L 23.34375 7.257812 L 23.34375 5.648438 Z M 6.65625 5.648438 " fill-opacity="1" fill-rule="evenodd"/></g></svg>