<svg xmlns="http://www.w3.org/2000/svg" xmlns:xlink="http://www.w3.org/1999/xlink" width="40" zoomAndPan="magnify" viewBox="0 0 30 30.000001" height="40" preserveAspectRatio="xMidYMid meet" version="1.0"><defs><clipPath id="85b2298fce"><path d="M 3.515625 2.773438 L 26.738281 2.773438 L 26.738281 26 L 3.515625 26 Z M 3.515625 2.773438 " clip-rule="nonzero"/></clipPath></defs><g clip-path="url(#85b2298fce)"><path fill="#81afc3" d="M 17.898438 25.328125 C 15.988281 24.835938 14.726562 23.992188 13.386719 23.082031 C 10.507812 21.117188 8.5625 18.886719 7.355469 17.253906 C 6.3125 15.839844 4.863281 13.84375 4.109375 10.890625 C 3.515625 8.5625 3.808594 7.441406 4.007812 6.886719 C 4.5 5.511719 5.804688 3.808594 7.25 3.890625 C 7.933594 3.929688 8.558594 4.574219 9.789062 5.867188 C 11.378906 7.539062 12.175781 8.375 12.078125 9.25 C 12.078125 9.25 12.019531 9.792969 9.929688 11.964844 C 9.929688 11.964844 11.074219 14.152344 12.433594 15.703125 C 14.609375 18.183594 17.757812 19.511719 17.757812 19.511719 C 17.757812 19.511719 19.007812 17.617188 20.324219 17.46875 C 21.054688 17.390625 21.632812 17.882812 22.761719 18.875 C 24.574219 20.464844 25.75 21.496094 25.582031 22.753906 C 25.398438 24.15625 23.664062 24.949219 23.097656 25.210938 C 21.109375 26.121094 19.136719 25.644531 17.898438 25.328125 Z M 16.59375 3.859375 C 16.835938 3.859375 17.082031 3.867188 17.324219 3.886719 C 17.410156 3.890625 17.503906 3.898438 17.59375 3.910156 C 17.632812 3.914062 17.671875 3.917969 17.714844 3.921875 C 17.765625 3.929688 17.96875 3.972656 17.773438 3.929688 C 17.984375 3.976562 18.207031 3.996094 18.421875 4.039062 C 18.941406 4.148438 19.457031 4.296875 19.953125 4.488281 C 20.023438 4.515625 20.09375 4.542969 20.164062 4.570312 C 20.289062 4.621094 20.058594 4.523438 20.179688 4.578125 C 20.214844 4.59375 20.25 4.609375 20.285156 4.625 C 20.429688 4.6875 20.574219 4.757812 20.714844 4.828125 C 21.003906 4.972656 21.28125 5.136719 21.550781 5.308594 C 21.699219 5.40625 21.84375 5.503906 21.988281 5.609375 C 22.011719 5.628906 22.035156 5.644531 22.058594 5.664062 C 22.074219 5.671875 22.191406 5.765625 22.097656 5.691406 C 22.179688 5.757812 22.265625 5.824219 22.347656 5.894531 C 22.617188 6.121094 22.875 6.363281 23.121094 6.621094 C 23.238281 6.75 23.355469 6.878906 23.46875 7.011719 C 23.515625 7.066406 23.558594 7.121094 23.601562 7.175781 C 23.628906 7.210938 23.65625 7.242188 23.683594 7.277344 C 23.597656 7.167969 23.710938 7.3125 23.726562 7.332031 C 23.910156 7.582031 24.078125 7.839844 24.238281 8.101562 C 24.394531 8.363281 24.535156 8.632812 24.664062 8.90625 C 24.691406 8.960938 24.714844 9.015625 24.738281 9.070312 C 24.753906 9.101562 24.769531 9.136719 24.78125 9.167969 C 24.789062 9.179688 24.792969 9.191406 24.796875 9.203125 C 24.820312 9.257812 24.816406 9.246094 24.785156 9.171875 C 24.824219 9.21875 24.84375 9.3125 24.863281 9.367188 C 24.890625 9.433594 24.914062 9.496094 24.9375 9.5625 C 25.105469 10.019531 25.238281 10.492188 25.339844 10.96875 C 25.386719 11.199219 25.417969 11.433594 25.457031 11.664062 C 25.460938 11.667969 25.4375 11.511719 25.449219 11.59375 C 25.453125 11.621094 25.457031 11.652344 25.460938 11.683594 C 25.464844 11.734375 25.472656 11.785156 25.476562 11.835938 C 25.488281 11.925781 25.496094 12.011719 25.503906 12.097656 C 25.519531 12.328125 25.53125 12.5625 25.527344 12.796875 C 25.527344 13.074219 25.777344 13.339844 26.0625 13.328125 C 26.351562 13.316406 26.59375 13.09375 26.597656 12.796875 C 26.605469 11.117188 26.160156 9.410156 25.367188 7.933594 C 24.070312 5.507812 21.734375 3.746094 19.074219 3.09375 C 18.265625 2.894531 17.425781 2.785156 16.59375 2.792969 C 16.316406 2.796875 16.046875 3.039062 16.058594 3.328125 C 16.074219 3.613281 16.292969 3.863281 16.59375 3.859375 Z M 16.488281 6.574219 C 16.671875 6.570312 16.855469 6.574219 17.035156 6.585938 C 17.175781 6.597656 17.316406 6.609375 17.457031 6.625 C 17.570312 6.640625 17.316406 6.605469 17.464844 6.625 C 17.5 6.632812 17.539062 6.636719 17.574219 6.644531 C 17.664062 6.65625 17.753906 6.671875 17.839844 6.691406 C 18.234375 6.769531 18.625 6.878906 19 7.023438 C 19.046875 7.042969 19.09375 7.0625 19.140625 7.082031 C 19.234375 7.117188 19.128906 7.082031 19.121094 7.070312 C 19.128906 7.082031 19.179688 7.097656 19.195312 7.101562 C 19.304688 7.152344 19.414062 7.203125 19.519531 7.257812 C 19.746094 7.375 19.96875 7.5 20.179688 7.640625 C 20.28125 7.707031 20.378906 7.777344 20.472656 7.847656 C 20.496094 7.867188 20.519531 7.882812 20.546875 7.902344 C 20.46875 7.84375 20.53125 7.890625 20.546875 7.90625 C 20.605469 7.953125 20.667969 8.003906 20.726562 8.054688 C 20.929688 8.230469 21.125 8.417969 21.308594 8.617188 C 21.382812 8.703125 21.457031 8.789062 21.53125 8.875 C 21.566406 8.917969 21.601562 8.960938 21.632812 9.003906 C 21.566406 8.914062 21.609375 8.976562 21.625 8.996094 C 21.648438 9.027344 21.671875 9.0625 21.695312 9.09375 C 21.832031 9.28125 21.957031 9.472656 22.070312 9.671875 C 22.175781 9.859375 22.273438 10.050781 22.363281 10.25 C 22.378906 10.285156 22.417969 10.339844 22.421875 10.378906 C 22.414062 10.304688 22.386719 10.296875 22.40625 10.347656 C 22.417969 10.375 22.429688 10.402344 22.441406 10.429688 C 22.476562 10.523438 22.511719 10.617188 22.546875 10.714844 C 22.660156 11.046875 22.753906 11.386719 22.820312 11.730469 C 22.835938 11.820312 22.851562 11.90625 22.867188 11.992188 C 22.871094 12.035156 22.878906 12.074219 22.882812 12.117188 C 22.898438 12.199219 22.875 12.046875 22.875 12.046875 C 22.875 12.070312 22.878906 12.09375 22.882812 12.117188 C 22.902344 12.253906 22.914062 12.386719 22.921875 12.523438 C 22.933594 12.6875 22.9375 12.855469 22.933594 13.019531 C 22.925781 13.300781 23.183594 13.566406 23.46875 13.554688 C 23.761719 13.542969 23.996094 13.320312 24 13.019531 C 24.027344 11.773438 23.703125 10.5 23.132812 9.398438 C 22.183594 7.550781 20.414062 6.207031 18.402344 5.722656 C 17.777344 5.574219 17.128906 5.492188 16.484375 5.507812 C 16.207031 5.511719 15.9375 5.746094 15.953125 6.039062 C 15.96875 6.324219 16.1875 6.582031 16.488281 6.574219 Z M 16.523438 9.183594 C 16.652344 9.1875 16.777344 9.195312 16.90625 9.207031 C 16.929688 9.210938 16.953125 9.214844 16.976562 9.214844 C 17.0625 9.226562 16.914062 9.207031 16.914062 9.207031 C 16.957031 9.214844 17.003906 9.21875 17.050781 9.230469 C 17.164062 9.25 17.273438 9.273438 17.386719 9.300781 C 17.5 9.328125 17.609375 9.359375 17.71875 9.394531 C 17.78125 9.414062 17.839844 9.4375 17.898438 9.457031 C 17.933594 9.472656 17.96875 9.488281 18.003906 9.5 C 18.109375 9.539062 17.914062 9.457031 18.023438 9.507812 C 18.300781 9.640625 18.5625 9.785156 18.8125 9.964844 C 18.808594 9.960938 18.929688 10.054688 18.871094 10.007812 C 18.8125 9.960938 18.933594 10.058594 18.929688 10.054688 C 18.988281 10.105469 19.046875 10.15625 19.101562 10.210938 C 19.21875 10.316406 19.328125 10.429688 19.429688 10.550781 C 19.445312 10.570312 19.585938 10.742188 19.5 10.632812 C 19.542969 10.6875 19.582031 10.738281 19.617188 10.792969 C 19.699219 10.910156 19.773438 11.027344 19.839844 11.152344 C 19.898438 11.257812 19.953125 11.363281 20.003906 11.472656 C 20.015625 11.496094 20.023438 11.515625 20.035156 11.539062 C 20.085938 11.648438 19.988281 11.421875 20.03125 11.535156 C 20.058594 11.597656 20.082031 11.660156 20.101562 11.722656 C 20.171875 11.914062 20.230469 12.117188 20.273438 12.320312 C 20.292969 12.410156 20.3125 12.5 20.324219 12.589844 C 20.328125 12.613281 20.332031 12.632812 20.335938 12.65625 C 20.351562 12.75 20.316406 12.507812 20.328125 12.597656 C 20.332031 12.636719 20.335938 12.675781 20.339844 12.714844 C 20.351562 12.816406 20.359375 12.917969 20.359375 13.019531 C 20.367188 13.300781 20.601562 13.566406 20.894531 13.554688 C 21.175781 13.542969 21.4375 13.320312 21.429688 13.019531 C 21.40625 12.230469 21.195312 11.441406 20.832031 10.742188 C 20.226562 9.570312 19.128906 8.695312 17.867188 8.320312 C 17.433594 8.195312 16.972656 8.125 16.523438 8.113281 C 16.242188 8.109375 15.976562 8.363281 15.988281 8.648438 C 16.003906 8.945312 16.222656 9.179688 16.523438 9.183594 Z M 16.523438 9.183594 " fill-opacity="1" fill-rule="nonzero"/></g></svg>