<svg xmlns="http://www.w3.org/2000/svg" xmlns:xlink="http://www.w3.org/1999/xlink" width="40" zoomAndPan="magnify" viewBox="0 0 30 30.000001" height="40" preserveAspectRatio="xMidYMid meet" version="1.0"><defs><clipPath id="322504c764"><path d="M 6.117188 4 L 23.535156 4 L 23.535156 19 L 6.117188 19 Z M 6.117188 4 " clip-rule="nonzero"/></clipPath><clipPath id="cd3215b8d6"><path d="M 6.117188 18 L 23.535156 18 L 23.535156 26.128906 L 6.117188 26.128906 Z M 6.117188 18 " clip-rule="nonzero"/></clipPath></defs><g clip-path="url(#322504c764)"><path fill="#81afc3" d="M 21.433594 10.632812 C 21.382812 10.453125 21.261719 10.308594 21.089844 10.21875 C 21.128906 9.816406 21.074219 9.324219 20.980469 8.917969 C 20.898438 8.582031 20.773438 8.210938 20.582031 7.820312 C 20.378906 7.4375 20.128906 7.027344 19.777344 6.652344 C 19.445312 6.261719 19.015625 5.90625 18.53125 5.59375 C 14.308594 2.914062 8.476562 6.082031 8.929688 10.21875 C 8.761719 10.308594 8.640625 10.453125 8.589844 10.632812 C 7.589844 10.648438 6.789062 11.394531 6.789062 12.3125 C 6.789062 13.230469 7.589844 13.972656 8.589844 13.992188 C 8.671875 14.28125 8.945312 14.5 9.285156 14.5 C 9.691406 14.5 10.015625 14.199219 10.015625 13.832031 L 10.015625 10.792969 C 10.015625 10.582031 9.902344 10.402344 9.738281 10.28125 C 9.921875 9.234375 10.464844 8.128906 11.226562 7.445312 C 12.347656 6.351562 14.289062 5.722656 16.421875 6.199219 C 17.242188 6.441406 18.050781 6.855469 18.722656 7.511719 C 19.472656 8.1875 20.082031 9.195312 20.28125 10.28125 C 19.847656 10.601562 20.003906 10.878906 20.003906 13.832031 C 20.003906 14.0625 20.140625 14.253906 20.335938 14.375 L 20.335938 14.632812 C 20.335938 14.796875 20.289062 14.957031 20.199219 15.09375 C 19.246094 16.582031 19.183594 16.734375 17.742188 17.195312 C 17.285156 17.339844 16.773438 17.402344 16.257812 17.527344 C 15.777344 17.058594 14.9375 17.367188 14.9375 18 C 14.9375 18.796875 16.179688 18.976562 16.421875 18.179688 C 16.773438 18.097656 17.132812 18.046875 17.46875 17.941406 C 19.332031 17.375 19.9375 17.039062 20.925781 15.160156 C 21.015625 14.984375 21.066406 14.785156 21.066406 14.585938 L 21.066406 14.417969 C 21.25 14.332031 21.378906 14.179688 21.433594 13.988281 C 22.429688 13.972656 23.234375 13.230469 23.234375 12.3125 C 23.234375 11.394531 22.429688 10.652344 21.433594 10.632812 " fill-opacity="1" fill-rule="nonzero"/></g><g clip-path="url(#cd3215b8d6)"><path fill="#81afc3" d="M 15.011719 21.492188 C 15.609375 20.652344 16.128906 19.933594 16.640625 19.203125 C 17.238281 18.351562 17.839844 18.074219 18.78125 18.394531 C 19.980469 18.796875 21.167969 19.25 22.328125 19.757812 C 23.324219 20.191406 23.886719 20.964844 23.824219 22.117188 C 23.792969 22.683594 23.824219 23.25 23.816406 23.816406 C 23.796875 25.378906 23.085938 26.105469 21.535156 26.113281 C 19.539062 26.128906 17.539062 26.121094 15.542969 26.121094 C 13.21875 26.121094 10.894531 26.125 8.574219 26.117188 C 6.914062 26.109375 6.214844 25.398438 6.203125 23.746094 C 6.203125 23.207031 6.230469 22.664062 6.199219 22.128906 C 6.125 20.929688 6.742188 20.160156 7.757812 19.722656 C 8.917969 19.21875 10.113281 18.785156 11.3125 18.386719 C 12.335938 18.046875 12.65625 18.199219 13.289062 19.085938 C 13.835938 19.851562 14.386719 20.617188 15.011719 21.492188 " fill-opacity="1" fill-rule="nonzero"/></g><path fill="#81afc3" d="M 19.246094 11.519531 C 19.136719 12.929688 18.691406 14.730469 17.210938 16.117188 C 15.960938 17.292969 14.046875 17.320312 12.816406 16.117188 C 11.105469 14.449219 10.566406 12.328125 10.832031 10.035156 C 10.96875 8.839844 11.699219 7.894531 12.929688 7.492188 C 14.753906 6.898438 16.519531 6.835938 18.125 8.113281 C 19.0625 8.859375 19.277344 9.878906 19.246094 11.519531 " fill-opacity="1" fill-rule="nonzero"/></svg>